<svg width="22" height="22" viewBox="0 0 22 22" fill="none" xmlns="http://www.w3.org/2000/svg">
<path fill-rule="evenodd" clip-rule="evenodd" d="M11 20.2C16.081 20.2 20.2 16.081 20.2 11C20.2 5.91898 16.081 1.8 11 1.8C5.91898 1.8 1.8 5.91898 1.8 11C1.8 16.081 5.91898 20.2 11 20.2ZM11 22C17.0751 22 22 17.0751 22 11C22 4.92487 17.0751 0 11 0C4.92487 0 0 4.92487 0 11C0 17.0751 4.92487 22 11 22Z" fill="#007AFF"/>
<path d="M12.25 15.75C12.25 16.4404 11.6904 17 11 17C10.3096 17 9.75 16.4404 9.75 15.75C9.75 15.0596 10.3096 14.5 11 14.5C11.6904 14.5 12.25 15.0596 12.25 15.75Z" fill="#007AFF"/>
<path fill-rule="evenodd" clip-rule="evenodd" d="M11.0102 7C9.8791 7 9.51954 7.71242 9.46991 7.91013C9.33545 8.4458 8.7922 8.77104 8.25654 8.63658C7.72087 8.50212 7.39563 7.95887 7.53009 7.4232C7.75937 6.50981 8.79435 5 11.0102 5C13.226 5 14.261 6.50981 14.4902 7.4232C14.7172 8.32722 14.6427 9.11834 14.3441 9.79981C14.0553 10.4589 13.5913 10.9356 13.1766 11.2853C12.9681 11.4611 12.7588 11.6156 12.5793 11.7458C12.5449 11.7708 12.5121 11.7946 12.4807 11.8173C12.3386 11.9201 12.226 12.0016 12.1255 12.0816C12.0618 12.1324 12.0188 12.1704 11.9907 12.1973C11.8991 12.6551 11.4949 13 11.0102 13C10.4579 13 10.0102 12.5523 10.0102 12C10.0102 11.589 10.1798 11.2648 10.3489 11.0406C10.5117 10.8248 10.7126 10.6501 10.8792 10.5174C11.0197 10.4055 11.1787 10.2905 11.3217 10.1872C11.35 10.1667 11.3777 10.1467 11.4045 10.1272C11.5776 10.0016 11.7376 9.88264 11.8873 9.75637C12.1891 9.50187 12.3971 9.25984 12.5123 8.99707C12.6176 8.75666 12.6791 8.42278 12.5504 7.91013C12.5008 7.71242 12.1412 7 11.0102 7Z" fill="#007AFF"/>
</svg>
